<?xml version="1.0" encoding="utf-8"?>
<!-- Generator: Adobe Illustrator 21.1.0, SVG Export Plug-In . SVG Version: 6.00 Build 0)  -->
<svg version="1.1" id="_x2014_ÎÓÈ_x5F_1" xmlns="http://www.w3.org/2000/svg" xmlns:xlink="http://www.w3.org/1999/xlink"
	 x="0px" y="0px" viewBox="0 0 93.3 82.6" style="enable-background:new 0 0 93.3 82.6;" xml:space="preserve">
<style type="text/css">
	.st0{fill:#B1CC3E;}
	.st1{fill:#9AB33A;}
</style>
<g>
	<path class="st0" d="M73.8,7c-10,0-18,8.1-18,18s8.1,18,18,18s18-8.1,18-18S83.7,7,73.8,7z M83.4,18L74,33.8
		c-0.4,0.7-1.2,1.2-2,1.3c-0.1,0-0.2,0-0.2,0c-0.8,0-1.5-0.3-2-0.9l-6.3-7.1c-0.5-0.5-0.7-1.2-0.7-1.9c0-0.7,0.4-1.4,0.9-1.8
		c0.5-0.5,1.2-0.7,1.9-0.7c0.7,0,1.4,0.4,1.8,0.9l3.9,4.4l7.6-12.6c0.4-0.6,0.9-1,1.6-1.2c0.7-0.2,1.4-0.1,2,0.3
		c0.6,0.4,1,0.9,1.2,1.6C83.9,16.7,83.8,17.4,83.4,18z"/>
	<path class="st1" d="M83.2,43.8c-0.9,0.5-1.8,0.9-2.8,1.2c1.2,1.8,1.9,4,1.9,6.3v2.1h-9.3V46c-1,0-2-0.1-3-0.3v9.2
		c0,0.8,0.7,1.5,1.5,1.5h10.8v6.6c0,0.5-0.4,1-1,1h-0.8c-0.7-3.7-3.9-6.5-7.8-6.5c-3.9,0-7.1,2.8-7.8,6.5H63V43
		c-1.1-0.6-2.1-1.4-3-2.2v12.5H16.5v-6.8h15.7c0.8,0,1.5-0.7,1.5-1.5c0-0.8-0.7-1.5-1.5-1.5H16.5v-3h8.9c0.8,0,1.5-0.7,1.5-1.5
		c0-0.8-0.7-1.5-1.5-1.5h-8.9v-3h1.5c0.8,0,1.5-0.7,1.5-1.5c0-0.8-0.7-1.5-1.5-1.5h-1.5v-2c0-0.5,0.4-1,1-1h35.6c-0.2-1-0.3-2-0.3-3
		H17.5c-2.2,0-4,1.8-4,4v2H2.8c-0.8,0-1.5,0.7-1.5,1.5c0,0.8,0.7,1.5,1.5,1.5h10.7v3h-7C5.7,37.5,5,38.2,5,39c0,0.8,0.7,1.5,1.5,1.5
		h7v3h-4c-0.8,0-1.5,0.7-1.5,1.5c0,0.8,0.7,1.5,1.5,1.5h4v16.3c0,2.2,1.8,4,4,4h4.3c0.7,3.7,3.9,6.5,7.8,6.5c3.9,0,7.1-2.8,7.8-6.5
		h27.4c0.7,3.7,3.9,6.5,7.8,6.5c3.9,0,7.1-2.8,7.8-6.5h0.8c2.2,0,4-1.8,4-4V51.2C85.2,48.5,84.5,45.9,83.2,43.8z M29.6,70.3
		c-2.7,0-5-2.2-5-5c0-2.7,2.2-5,5-5c2.7,0,5,2.2,5,5C34.6,68.1,32.4,70.3,29.6,70.3z M60,63.9H37.5c-0.7-3.7-3.9-6.5-7.8-6.5
		c-3.9,0-7.1,2.8-7.8,6.5h-4.3c-0.5,0-1-0.4-1-1v-6.6H60V63.9z M72.6,70.3c-2.7,0-5-2.2-5-5c0-2.7,2.2-5,5-5s5,2.2,5,5
		C77.6,68.1,75.3,70.3,72.6,70.3z"/>
</g>
</svg>
